<svg width="27" height="40" viewBox="0 0 27 40" fill="none" xmlns="http://www.w3.org/2000/svg">
<ellipse cx="13.5" cy="19.675" rx="13.5" ry="12.325" fill="#FCFFFF"/>
<path d="M17.368 14.456C17.368 14.616 17.296 14.856 17.152 15.176C17.024 15.496 16.68 15.792 16.12 16.064L9.064 19.568V18.824L16.792 22.808C16.968 22.888 17.08 22.952 17.128 23C17.192 23.048 17.224 23.16 17.224 23.336C17.224 23.512 17.096 23.704 16.84 23.912C16.6 24.12 16.296 24.224 15.928 24.224C15.64 24.224 15.368 24.16 15.112 24.032L7.936 20.408C7.552 20.2 7.36 19.904 7.36 19.52C7.36 19.232 7.496 18.92 7.768 18.584C8.056 18.248 8.648 17.856 9.544 17.408L16.12 14.096C16.536 13.872 16.848 13.816 17.056 13.928C17.264 14.04 17.368 14.216 17.368 14.456Z" fill="#2563EB"/>
</svg>
